<svg aria-hidden="true" style="position: absolute; width: 0; height: 0; overflow: hidden;" version="1.1" xmlns="http://www.w3.org/2000/svg" xmlns:xlink="http://www.w3.org/1999/xlink">
<defs>
<symbol id="icon-close-black-18dp-2-1-4" viewBox="0 0 2 2">
<path d="M1.667 0.456l-0.123-0.123-0.488 0.488-0.488-0.488-0.123 0.123 0.488 0.488-0.488 0.488 0.123 0.123 0.488-0.488 0.488 0.488 0.123-0.123-0.488-0.488 0.488-0.488z"></path>
</symbol>
<symbol id="icon-icon-send-1" viewBox="0 0 2 2">
<path fill="#fff" style="fill: var(--color1, #fff)" d="M2 0l-2 1.125 0.639 0.237 0.986-0.924-0.75 1.012 0.001 0-0.001-0v0.551l0.358-0.418 0.454 0.168 0.312-1.75z"></path>
</symbol>
<symbol id="icon-email-black-18dp-1-1" viewBox="0 0 2 2">
<path d="M1.667 0.333h-1.333c-0.092 0-0.166 0.075-0.166 0.167l-0.001 1c0 0.092 0.075 0.167 0.167 0.167h1.333c0.092 0 0.167-0.075 0.167-0.167v-1c0-0.092-0.075-0.167-0.167-0.167zM1.633 0.688l-0.589 0.368c-0.013 0.008-0.028 0.013-0.044 0.013s-0.032-0.005-0.045-0.013l0 0-0.589-0.368c-0.021-0.013-0.035-0.035-0.035-0.061 0-0.039 0.032-0.071 0.071-0.071 0.015 0 0.028 0.004 0.039 0.012l-0-0 0.558 0.349 0.558-0.349c0.011-0.007 0.024-0.012 0.039-0.012 0.039 0 0.071 0.032 0.071 0.071 0 0.026-0.014 0.048-0.034 0.061l-0 0z"></path>
</symbol>
<symbol id="icon-phone-black-18dp-1-1" viewBox="0 0 2 2">
<path d="M1.555 1.236l-0.204-0.023c-0.006-0.001-0.012-0.001-0.019-0.001-0.044 0-0.084 0.018-0.113 0.047l-0.148 0.148c-0.229-0.118-0.412-0.301-0.527-0.523l-0.003-0.007 0.149-0.149c0.029-0.029 0.047-0.069 0.047-0.113 0-0.007-0-0.013-0.001-0.020l0 0.001-0.023-0.203c-0.010-0.080-0.078-0.142-0.16-0.142-0 0-0 0-0 0h-0.139c-0.091 0-0.166 0.076-0.161 0.166 0.043 0.687 0.592 1.235 1.278 1.278 0.091 0.006 0.166-0.070 0.166-0.161v-0.139c0-0 0-0 0-0.001 0-0.082-0.062-0.149-0.141-0.158l-0.001-0z"></path>
</symbol>
<symbol id="icon-person-black-18dp-1-1" viewBox="0 0 2 2">
<path d="M1 1c0.184 0 0.333-0.149 0.333-0.333s-0.149-0.333-0.333-0.333v0c-0.184 0-0.333 0.149-0.333 0.333s0.149 0.333 0.333 0.333v0zM1 1.167c-0.223 0-0.667 0.112-0.667 0.333v0.083c0 0.046 0.037 0.083 0.083 0.083h1.167c0.046 0 0.083-0.038 0.083-0.083v-0.083c0-0.222-0.444-0.333-0.667-0.333z"></path>
</symbol>
</defs>
</svg>